<svg width="301" height="79" viewBox="0 0 301 79" fill="none" xmlns="http://www.w3.org/2000/svg">
<g clip-path="url(#clip0_2_5)">
<path d="M34.1221 0L68.2443 19.7006V59.1017L34.1221 78.8022L0 59.1017V19.7006L34.1221 0Z" fill="#D4240C"/>
<path d="M17.5999 42.3774L16.3891 42.729C16.5013 43.1151 16.6218 43.4987 16.7507 43.8795L17.945 43.4752C17.8221 43.1127 17.7059 42.7429 17.5999 42.3774ZM20.9987 49.6753C19.9019 48.0307 18.992 46.2689 18.286 44.4225L17.1081 44.8723C17.8477 46.8064 18.8008 48.6519 19.9496 50.3747C21.8732 53.2684 24.3261 55.7728 27.1793 57.7561L27.8993 56.7209C25.176 54.8279 22.8347 52.4374 20.9987 49.6753ZM50.5944 34.9882C50.5944 36.641 50.4406 38.2903 50.135 39.9146L51.374 40.1484C51.6941 38.447 51.8553 36.7194 51.8552 34.9882V28.0536H50.5944V34.9882ZM50.5944 25.5319H51.8552V26.7927H50.5944V25.5319Z" fill="white"/>
<path d="M48.856 24.2899L33.726 20.5074C33.6256 20.4823 33.5206 20.4823 33.4202 20.5074L18.2902 24.2899C18.1538 24.324 18.0327 24.4027 17.9462 24.5135C17.8596 24.6243 17.8126 24.7609 17.8126 24.9015V34.9882C17.8126 39.9666 19.2862 44.8336 22.0478 48.9759C24.8093 53.1182 28.7352 56.3504 33.3306 58.2652C33.4075 58.2972 33.4899 58.3136 33.5731 58.3136C33.6563 58.3136 33.7387 58.2972 33.8156 58.2652C38.411 56.3504 42.3369 53.1182 45.0984 48.9759C47.8599 44.8336 49.3336 39.9666 49.3336 34.9882V24.9015C49.3335 24.7609 49.2865 24.6243 49.2 24.5135C49.1135 24.4027 48.9924 24.324 48.856 24.2899ZM48.0727 34.9882C48.0727 39.6728 46.6992 44.2547 44.122 48.1667C41.5449 52.0788 37.8773 55.1495 33.5731 56.9987C29.2689 55.1495 25.6013 52.0788 23.0241 48.1667C20.447 44.2547 19.0735 39.6728 19.0735 34.9882V25.3937L33.5731 21.7688L48.0727 25.3937V34.9882Z" fill="white"/>
<path d="M33.4202 23.7565L21.4423 26.751C21.3059 26.785 21.1848 26.8637 21.0983 26.9745C21.0118 27.0853 20.9647 27.2219 20.9647 27.3625V34.9882C20.9648 39.1112 22.1201 43.1517 24.2995 46.6517C26.4789 50.1516 29.5953 52.971 33.2953 54.7901C33.3818 54.8325 33.4768 54.8546 33.5731 54.8546C33.6694 54.8546 33.7644 54.8325 33.8509 54.7901C37.5509 52.971 40.6673 50.1516 42.8467 46.6517C45.0261 43.1517 46.1814 39.1112 46.1815 34.9882V27.3625C46.1814 27.2219 46.1344 27.0853 46.0479 26.9745C45.9614 26.8637 45.8403 26.785 45.7039 26.751L33.726 23.7565C33.6256 23.7313 33.5206 23.7313 33.4202 23.7565ZM22.2256 27.8547L32.9427 25.1755V38.1402H22.4646C22.3055 37.0971 22.2255 36.0434 22.2256 34.9882V27.8547ZM25.7196 46.528C24.274 44.363 23.2487 41.9453 22.6973 39.4011H32.9427V53.1836C30.0386 51.573 27.5619 49.291 25.7196 46.528ZM41.4266 46.528C39.5843 49.291 37.1076 51.573 34.2035 53.1836V39.4011H44.4489C43.8975 41.9453 42.8722 44.363 41.4266 46.528ZM44.9206 34.9882C44.9206 36.0434 44.8407 37.0971 44.6815 38.1402H34.2035V25.1755L44.9206 27.8547V34.9882Z" fill="white"/>
<path d="M106.388 24.6528C104.414 23.5424 102.18 22.984 99.6933 22.984C97.466 22.984 95.4595 23.3671 93.6738 24.1333C91.8881 24.8996 90.4011 26.0164 89.1998 27.4775L92.9011 30.9255C94.6738 28.9385 96.8426 27.9385 99.4011 27.9385C101.2 27.9385 102.732 28.458 104.005 29.484C105.271 30.5164 106.109 31.8931 106.518 33.6203H96.3881V38.0749H106.589C106.206 39.8931 105.375 41.3411 104.089 42.419C102.81 43.497 101.245 44.0359 99.4011 44.0359C96.8426 44.0359 94.6738 43.0424 92.9011 41.0554L89.1998 44.5035C90.4011 45.9645 91.8881 47.0749 93.6738 47.8411C95.4595 48.6074 97.466 48.9905 99.6933 48.9905C102.18 48.9905 104.414 48.4385 106.388 47.3216C108.369 46.2113 109.921 44.6658 111.044 42.6853C112.167 40.7113 112.732 38.4775 112.732 35.9905C112.732 33.497 112.167 31.2632 111.044 29.2892C109.921 27.3151 108.369 25.7697 106.388 24.6528ZM134.752 29.2372H118.226L117.94 36.997C117.869 38.5489 117.758 39.8022 117.615 40.7502C117.473 41.6918 117.193 42.471 116.771 43.0814C116.356 43.6918 115.726 43.997 114.888 43.997C114.719 43.997 114.447 43.9775 114.063 43.9255L113.771 48.5229C114.901 48.8151 115.869 48.958 116.68 48.958C118.213 48.958 119.414 48.4775 120.278 47.5229C121.135 46.5619 121.758 45.2437 122.141 43.5684C122.524 41.8931 122.765 39.7827 122.862 37.2437L123.044 33.8346H129.148V48.5619H134.752V29.2372ZM140.141 29.2372V48.5619H145.317L154.693 37.0684V48.5619H160.258V29.2372H155.122L145.713 40.7307V29.2372H140.141ZM182.998 28.1593V23.4125H161.193V28.1593H169.206V48.5619H174.953V28.1593H182.998ZM204.375 28.1593L204.408 23.4125H186.661V48.5619H192.447L192.408 28.1593H204.375ZM221.888 30.1853C220.414 29.3606 218.778 28.945 216.979 28.945C214.323 28.945 212.297 29.7827 210.914 31.4645V29.2372H205.557V55.5294H211.161V46.5164C212.576 48.0684 214.518 48.8476 216.979 48.8476C218.778 48.8476 220.414 48.4385 221.888 47.6074C223.356 46.7827 224.511 45.6203 225.356 44.1268C226.193 42.6268 226.609 40.8866 226.609 38.8996C226.609 36.9125 226.193 35.1658 225.356 33.6723C224.511 32.1723 223.356 31.01 221.888 30.1853ZM219.55 42.7957C218.628 43.7632 217.447 44.2502 216.011 44.2502C214.576 44.2502 213.395 43.7632 212.473 42.7957C211.55 41.8281 211.089 40.5294 211.089 38.8996C211.089 37.2697 211.55 35.971 212.473 35.0035C213.395 34.0294 214.576 33.5489 216.011 33.5489C217.447 33.5489 218.628 34.0294 219.55 35.0035C220.473 35.971 220.934 37.2697 220.934 38.8996C220.934 40.5294 220.473 41.8281 219.55 42.7957ZM249.349 29.2372H243.96L238.498 42.3476L233.076 29.2372H227.291L235.661 48.7048L235.589 48.8866C235.206 49.7502 234.778 50.3671 234.297 50.7372C233.817 51.1074 233.193 51.2892 232.427 51.2892C231.882 51.2892 231.323 51.1853 230.758 50.971C230.193 50.7502 229.7 50.4515 229.271 50.0684L227.219 54.0554C227.843 54.6074 228.648 55.0424 229.628 55.3541C230.609 55.6658 231.602 55.8216 232.609 55.8216C234.453 55.8216 236.031 55.3606 237.336 54.4515C238.641 53.5424 239.732 51.9775 240.622 49.7502L249.349 29.2372ZM271.265 29.2372H252.044V48.5619H257.609V33.8346H265.661V48.5619H271.265V29.2372ZM300.005 23.4125H277.083V48.5619H282.869V28.1593H294.219V48.5619H300.005V23.4125Z" fill="#050505"/>
</g>
<defs>
<clipPath id="clip0_2_5">
<rect width="300.005" height="78.8022" fill="white"/>
</clipPath>
</defs>
</svg>
